<svg width="312" height="318" viewBox="0 0 312 318" fill="none" xmlns="http://www.w3.org/2000/svg">
<rect y="20" width="312" height="298" rx="90" fill="#C4C4C4"/>
<path d="M0 106C0 58.5035 38.5035 20 86 20H226C273.496 20 312 58.5035 312 106V120H0V106Z" fill="#E43838"/>
<circle cx="215" cy="63" r="15" fill="#571B1B"/>
<circle cx="97" cy="63" r="15" fill="#571B1B"/>
<rect x="209" width="13" height="70" rx="6.5" fill="#C4C4C4"/>
<rect x="91" width="13" height="70" rx="6.5" fill="#C4C4C4"/>
<rect x="41" y="169" width="20" height="20" fill="#6A3030"/>
<rect x="41" y="198" width="20" height="20" fill="#6A3030"/>
<rect x="41" y="227" width="20" height="20" fill="#6A3030"/>
<rect x="41" y="256" width="20" height="20" fill="#6A3030"/>
<rect x="76" y="169" width="20" height="20" fill="#6A3030"/>
<rect x="76" y="198" width="20" height="20" fill="#6A3030"/>
<rect x="76" y="227" width="20" height="20" fill="#6A3030"/>
<rect x="76" y="256" width="20" height="20" fill="#6A3030"/>
<rect x="111" y="140" width="20" height="20" fill="#6A3030"/>
<rect x="111" y="169" width="20" height="20" fill="#6A3030"/>
<rect x="111" y="198" width="20" height="20" fill="#6A3030"/>
<rect x="111" y="227" width="20" height="20" fill="#6A3030"/>
<rect x="111" y="256" width="20" height="20" fill="#6A3030"/>
<rect x="146" y="140" width="20" height="20" fill="#6A3030"/>
<rect x="146" y="169" width="20" height="20" fill="#6A3030"/>
<rect x="146" y="198" width="20" height="20" fill="#6A3030"/>
<rect x="146" y="227" width="20" height="20" fill="#6A3030"/>
<rect x="146" y="256" width="20" height="20" fill="#6A3030"/>
<rect x="181" y="140" width="20" height="20" fill="#6A3030"/>
<rect x="181" y="169" width="20" height="20" fill="#6A3030"/>
<rect x="181" y="198" width="20" height="20" fill="#6A3030"/>
<rect x="181" y="227" width="20" height="20" fill="#6A3030"/>
<rect x="181" y="256" width="20" height="20" fill="#6FA457"/>
<rect x="216" y="140" width="20" height="20" fill="#6A3030"/>
<rect x="216" y="169" width="20" height="20" fill="#6A3030"/>
<rect x="216" y="198" width="20" height="20" fill="#6A3030"/>
<rect x="216" y="227" width="20" height="20" fill="#6A3030"/>
<rect x="251" y="140" width="20" height="20" fill="#6A3030"/>
<rect x="251" y="169" width="20" height="20" fill="#6A3030"/>
<rect x="251" y="198" width="20" height="20" fill="#6A3030"/>
<rect x="251" y="227" width="20" height="20" fill="#6A3030"/>
</svg>
