<svg width="360" height="289" viewBox="0 0 360 289" fill="none" xmlns="http://www.w3.org/2000/svg">
<g clip-path="url(#clip0)">
<rect x="267" y="231" width="68" height="57" fill="#AFB8AA"/>
<path d="M0 0H311V288H29C12.9837 288 0 275.016 0 259V0Z" fill="#AFB8AA"/>
<path d="M311 63H359V264C359 277.255 348.255 288 335 288C321.745 288 311 277.255 311 264V63Z" fill="#5E5E5E" stroke="black" stroke-width="2"/>
<path d="M333 288H28.5961C13.5502 288 1.27637 275.95 1 260.906V260.906V0.00347221M1 0.00347221V-1M1 0.00347221H1.9955" stroke="black" stroke-width="2"/>
<rect x="34" y="11" width="242" height="51" fill="#9D9D9D"/>
<rect x="10" y="84" width="123" height="11" rx="5.5" fill="#2C2B2B"/>
<rect x="10" y="103" width="123" height="11" rx="5.5" fill="#2C2B2B"/>
<rect x="10" y="122" width="123" height="11" rx="5.5" fill="#2C2B2B"/>
<rect x="10" y="141" width="123" height="11" rx="5.5" fill="#2C2B2B"/>
<rect x="10" y="160" width="123" height="11" rx="5.5" fill="#2C2B2B"/>
<rect x="10" y="179" width="291" height="11" rx="5.5" fill="#2C2B2B"/>
<rect x="10" y="198" width="291" height="11" rx="5.5" fill="#2C2B2B"/>
<rect x="10" y="217" width="291" height="11" rx="5.5" fill="#2C2B2B"/>
<rect x="10" y="236" width="291" height="11" rx="5.5" fill="#2C2B2B"/>
<rect x="156" y="74" width="130" height="91" fill="#C4C4C4"/>
<path d="M144.352 54H140.152L124.872 30.28H124.712C124.765 31.2133 124.832 32.3733 124.912 33.76C124.992 35.1467 125.032 36.5733 125.032 38.04V54H121.712V25.44H125.872L141.112 49.08H141.272C141.245 48.6533 141.205 48.0133 141.152 47.16C141.125 46.3067 141.085 45.3733 141.032 44.36C141.005 43.3467 140.992 42.4133 140.992 41.56V25.44H144.352V54ZM162.423 41.4V44.28H159.503C155.476 44.28 153.463 45.5067 153.463 47.96C153.463 49.2667 154.009 50.1867 155.103 50.72C156.196 51.2533 157.543 51.52 159.143 51.52C160.636 51.52 161.943 51.3467 163.063 51C164.209 50.6533 165.223 50.2667 166.103 49.84V52.92C165.276 53.3467 164.289 53.7067 163.143 54C161.996 54.2667 160.596 54.4 158.943 54.4C155.876 54.4 153.609 53.8133 152.143 52.64C150.676 51.44 149.943 49.9467 149.943 48.16C149.943 47.0933 150.156 46.2267 150.583 45.56C151.036 44.8667 151.623 44.32 152.343 43.92C153.063 43.4933 153.849 43.16 154.703 42.92V42.72C153.503 42.3467 152.529 41.7733 151.783 41C151.063 40.2 150.703 39.1467 150.703 37.84C150.703 36.0267 151.463 34.6267 152.983 33.64C154.529 32.6533 156.516 32.16 158.943 32.16C160.489 32.16 161.809 32.2933 162.903 32.56C164.023 32.8267 165.116 33.2 166.183 33.68L164.863 36.48C163.983 36.08 163.076 35.7467 162.143 35.48C161.236 35.2133 160.156 35.08 158.903 35.08C155.676 35.08 154.063 36.0933 154.063 38.12C154.063 39.2933 154.609 40.1333 155.703 40.64C156.823 41.1467 158.316 41.4 160.183 41.4H162.423ZM157.383 29.2C157.623 28.5333 157.863 27.7733 158.103 26.92C158.343 26.04 158.556 25.1467 158.743 24.24C158.929 23.3333 159.076 22.52 159.183 21.8H162.943V22.24C162.809 22.8267 162.556 23.5733 162.183 24.48C161.809 25.36 161.383 26.28 160.903 27.24C160.449 28.1733 159.983 29.0133 159.503 29.76H157.383V29.2ZM178.559 54.4C175.945 54.4 173.825 53.48 172.199 51.64C170.572 49.7733 169.759 47.0133 169.759 43.36C169.759 39.7333 170.559 36.96 172.159 35.04C173.759 33.12 175.999 32.16 178.879 32.16C180.452 32.16 181.759 32.44 182.799 33C183.865 33.5333 184.745 34.3467 185.439 35.44H185.679C185.812 34.9867 185.985 34.4933 186.199 33.96C186.412 33.4267 186.665 32.96 186.959 32.56H189.719C189.532 33.1467 189.359 33.92 189.199 34.88C189.039 35.84 188.919 36.8533 188.839 37.92C188.759 38.9867 188.719 40 188.719 40.96V49.28C188.719 50.1067 188.879 50.6933 189.199 51.04C189.519 51.36 189.905 51.52 190.359 51.52C190.572 51.52 190.799 51.4933 191.039 51.44C191.279 51.3867 191.452 51.3467 191.559 51.32V53.88C191.372 53.9867 191.065 54.0933 190.639 54.2C190.212 54.3333 189.772 54.4 189.319 54.4C188.332 54.4 187.519 54.16 186.879 53.68C186.265 53.2 185.812 52.3467 185.519 51.12H185.239C184.625 52.0267 183.812 52.8 182.799 53.44C181.785 54.08 180.372 54.4 178.559 54.4ZM179.159 51.48C181.372 51.48 182.932 50.8533 183.839 49.6C184.772 48.32 185.239 46.3067 185.239 43.56V43.32C185.239 40.6533 184.799 38.6267 183.919 37.24C183.065 35.8267 181.465 35.12 179.119 35.12C177.172 35.12 175.732 35.8267 174.799 37.24C173.865 38.6533 173.399 40.7067 173.399 43.4C173.399 46.0667 173.852 48.08 174.759 49.44C175.692 50.8 177.159 51.48 179.159 51.48Z" fill="black"/>
</g>
<defs>
<clipPath id="clip0">
<rect width="360" height="289" fill="white"/>
</clipPath>
</defs>
</svg>
