<svg width="360" height="360" viewBox="0 0 360 360" fill="none" xmlns="http://www.w3.org/2000/svg">
<line x1="232.085" y1="46.1075" x2="230.999" y2="147.107" stroke="#1C8521" stroke-width="20"/>
<line x1="180" y1="97" x2="281.005" y2="97" stroke="#1C8521" stroke-width="20"/>
<line y1="-5" x2="55.0032" y2="-5" transform="matrix(-0.0109505 0.99994 -0.999944 -0.0105572 277.917 184)" stroke="#1C8521" stroke-width="10"/>
<line x1="255" y1="212.218" x2="310" y2="212.218" stroke="#1C8521" stroke-width="10"/>
<line y1="-2.5" x2="25.0015" y2="-2.5" transform="matrix(-0.0110775 0.999939 -0.999946 -0.0104362 240.417 266)" stroke="#1C8521" stroke-width="5"/>
<line x1="230" y1="278.599" x2="255" y2="278.599" stroke="#1C8521" stroke-width="5"/>
<rect x="75.7811" y="108.929" width="42.2961" height="188" transform="rotate(-30 75.7811 108.929)" stroke="#9CA6C9" stroke-width="7"/>
<line x1="55.4459" y1="115.434" x2="126.446" y2="72.4339" stroke="#9CA6C9" stroke-width="6"/>
<rect x="178.632" y="264.053" width="20.9365" height="15" transform="rotate(-30 178.632 264.053)" fill="#9CA6C9"/>
<line x1="142.015" y1="143.455" x2="130.015" y2="150.455" stroke="#9CA6C9" stroke-width="8"/>
<line x1="130.015" y1="121.455" x2="118.015" y2="128.455" stroke="#9CA6C9" stroke-width="8"/>
<line x1="154.015" y1="164.455" x2="142.015" y2="171.455" stroke="#9CA6C9" stroke-width="8"/>
<line x1="166.015" y1="184.455" x2="154.015" y2="191.455" stroke="#9CA6C9" stroke-width="8"/>
<line x1="178.015" y1="207.455" x2="166.015" y2="214.455" stroke="#9CA6C9" stroke-width="8"/>
<line x1="193.199" y1="270.811" x2="213.199" y2="307.811" stroke="#9CA6C9" stroke-width="5"/>
<line x1="77.0777" y1="71.527" x2="89.0777" y2="92.527" stroke="#9CA6C9" stroke-width="14"/>
<line x1="52.5238" y1="82.3883" x2="98.5238" y2="56.3883" stroke="#9CA6C9" stroke-width="6"/>
</svg>
