<svg width="360" height="274" viewBox="0 0 360 274" fill="none" xmlns="http://www.w3.org/2000/svg">
<g clip-path="url(#clip0)">
<ellipse cx="134.5" cy="96.5" rx="99.5" ry="66.5" fill="#B8D182"/>
<ellipse cx="233.5" cy="172.5" rx="99.5" ry="66.5" fill="#4BD7D7"/>
<path d="M55.8488 183.235C51.2343 184.075 48.2433 178.461 51.4593 174.997V174.997C63.2879 162.255 70.8555 146.056 73.083 128.711L74.6803 116.273L113.411 160.532L104.078 166.447C92.3648 173.871 79.3645 178.956 65.7772 181.428L55.8488 183.235Z" fill="#B8D182"/>
<path d="M322.785 261.023C327.446 261.618 330.363 256.19 327.243 252.73V252.73C314.221 238.29 306.641 219.868 305.774 200.557L305.166 187L257 238.799L263.93 242.981C278.512 251.779 294.816 257.447 311.778 259.615L322.785 261.023Z" fill="#4BD7D7"/>
<path d="M137.039 112.074C137.039 113.604 135.997 114.369 133.914 114.369C132.319 114.369 131.049 113.913 130.105 113.002C128.38 111.342 127.518 109.372 127.518 107.094C127.518 102.406 130.561 96.5306 136.648 89.4668C141.173 84.1283 143.436 79.1478 143.436 74.5254C143.436 68.2103 139.904 65.0527 132.84 65.0527C129.682 65.0527 126.899 66.0944 124.49 68.1777C122.081 70.2285 120.34 73.3535 119.266 77.5527C119.135 78.1387 118.875 78.7409 118.484 79.3594C118.094 79.9453 117.671 80.2383 117.215 80.2383C116.141 80.2383 115.604 79.5384 115.604 78.1387V64.6621C121.463 61.4069 127.632 59.7793 134.109 59.7793C140.978 59.7793 146.251 61.1628 149.93 63.9297C153.217 66.4362 154.861 69.7891 154.861 73.9883C154.861 79.4245 152.257 84.6816 147.049 89.7598C145.226 91.5176 143.012 93.4707 140.408 95.6191C134.679 100.307 131.814 104.197 131.814 107.289C131.814 107.94 132.075 108.493 132.596 108.949C133.149 109.405 133.784 109.698 134.5 109.828C135.249 109.958 135.851 110.17 136.307 110.463C136.795 110.756 137.039 111.293 137.039 112.074ZM127.859 134.975C127.306 134.324 126.899 133.607 126.639 132.826C126.378 132.045 126.248 131.247 126.248 130.434C126.248 129.62 126.411 128.806 126.736 127.992C127.094 127.146 127.583 126.397 128.201 125.746C129.568 124.346 131.033 123.646 132.596 123.646C134.191 123.646 135.411 123.858 136.258 124.281C137.104 124.704 137.804 125.258 138.357 125.941C139.464 127.309 140.018 128.692 140.018 130.092C140.018 131.459 139.822 132.549 139.432 133.363C139.074 134.145 138.585 134.828 137.967 135.414C136.632 136.586 135.184 137.172 133.621 137.172C132.091 137.172 130.887 136.96 130.008 136.537C129.161 136.114 128.445 135.593 127.859 134.975Z" fill="black"/>
<path d="M237.039 176.074C237.039 177.604 235.997 178.369 233.914 178.369C232.319 178.369 231.049 177.913 230.105 177.002C228.38 175.342 227.518 173.372 227.518 171.094C227.518 166.406 230.561 160.531 236.648 153.467C241.173 148.128 243.436 143.148 243.436 138.525C243.436 132.21 239.904 129.053 232.84 129.053C229.682 129.053 226.899 130.094 224.49 132.178C222.081 134.229 220.34 137.354 219.266 141.553C219.135 142.139 218.875 142.741 218.484 143.359C218.094 143.945 217.671 144.238 217.215 144.238C216.141 144.238 215.604 143.538 215.604 142.139V128.662C221.463 125.407 227.632 123.779 234.109 123.779C240.978 123.779 246.251 125.163 249.93 127.93C253.217 130.436 254.861 133.789 254.861 137.988C254.861 143.424 252.257 148.682 247.049 153.76C245.226 155.518 243.012 157.471 240.408 159.619C234.679 164.307 231.814 168.197 231.814 171.289C231.814 171.94 232.075 172.493 232.596 172.949C233.149 173.405 233.784 173.698 234.5 173.828C235.249 173.958 235.851 174.17 236.307 174.463C236.795 174.756 237.039 175.293 237.039 176.074ZM227.859 198.975C227.306 198.324 226.899 197.607 226.639 196.826C226.378 196.045 226.248 195.247 226.248 194.434C226.248 193.62 226.411 192.806 226.736 191.992C227.094 191.146 227.583 190.397 228.201 189.746C229.568 188.346 231.033 187.646 232.596 187.646C234.191 187.646 235.411 187.858 236.258 188.281C237.104 188.704 237.804 189.258 238.357 189.941C239.464 191.309 240.018 192.692 240.018 194.092C240.018 195.459 239.822 196.549 239.432 197.363C239.074 198.145 238.585 198.828 237.967 199.414C236.632 200.586 235.184 201.172 233.621 201.172C232.091 201.172 230.887 200.96 230.008 200.537C229.161 200.114 228.445 199.593 227.859 198.975Z" fill="black"/>
</g>
<defs>
<clipPath id="clip0">
<rect width="360" height="274" fill="white"/>
</clipPath>
</defs>
</svg>
