<svg width="480" height="480" viewBox="0 0 480 480" fill="none" xmlns="http://www.w3.org/2000/svg">
<rect x="36" y="227" width="36" height="133" fill="#EC1B1B"/>
<rect x="108" y="125" width="36" height="235" fill="#B36868"/>
<rect x="180" y="70" width="36" height="290" fill="#CD9B9B"/>
<rect x="252" y="168" width="36" height="192" fill="#C4C4C4"/>
<rect x="324" y="236" width="36" height="124" fill="#945D5D"/>
<rect x="9" y="14" width="15" height="380" fill="black"/>
<rect x="16" y="394" width="15" height="380" transform="rotate(-90 16 394)" fill="black"/>
<circle cx="380" cy="379" r="98" fill="#C40101" stroke="black" stroke-width="4"/>
<mask id="path-9-inside-1" fill="white">
<path d="M480 380C480 360.222 474.135 340.888 463.147 324.443C452.159 307.998 436.541 295.181 418.268 287.612C399.996 280.043 379.889 278.063 360.491 281.921C341.093 285.78 323.275 295.304 309.289 309.289L380 380H480Z"/>
</mask>
<path d="M480 380C480 360.222 474.135 340.888 463.147 324.443C452.159 307.998 436.541 295.181 418.268 287.612C399.996 280.043 379.889 278.063 360.491 281.921C341.093 285.78 323.275 295.304 309.289 309.289L380 380H480Z" fill="#C4C4C4" stroke="black" stroke-width="8" mask="url(#path-9-inside-1)"/>
<mask id="path-10-inside-2" fill="white">
<path d="M309.289 308.289C295.304 322.275 285.78 340.093 281.921 359.491C278.063 378.889 280.043 398.996 287.612 417.268C295.181 435.541 307.998 451.159 324.443 462.147C340.888 473.135 360.222 479 380 479L380 379L309.289 308.289Z"/>
</mask>
<path d="M309.289 308.289C295.304 322.275 285.78 340.093 281.921 359.491C278.063 378.889 280.043 398.996 287.612 417.268C295.181 435.541 307.998 451.159 324.443 462.147C340.888 473.135 360.222 479 380 479L380 379L309.289 308.289Z" fill="#452626" stroke="black" stroke-width="8" mask="url(#path-10-inside-2)"/>
</svg>
